# xmcd CD database file
#
# Track frame offsets:
#	150
#	19862
#	42375
#	62100
#
# Disc length: 1124 seconds
#
# Revision: 3
# Processed by: cddbd v1.5.2PL0 Copyright (c) Steve Scherf et al.
# Submitted via: CDex 1.70beta3
#
DISCID=30046204
DTITLE=郷ひろみ - 逢いたくてしかたない
DYEAR=2014
DGENRE=Anime
TTITLE0=逢いたくてしかたない
TTITLE1=忘れられないひと
TTITLE2=逢いたくてしかたない (オリジナル・カラオケ)
TTITLE3=忘れられないひと (オリジナル・カラオケ)
EXTD=YEAR: 2014
EXTT0=
EXTT1=
EXTT2=
EXTT3=
PLAYORDER=
